<svg xmlns="http://www.w3.org/2000/svg" xmlns:xlink="http://www.w3.org/1999/xlink" version="1.1" x="0px" y="0px" viewBox="0 0 100 125" style="enable-background:new 0 0 100 100;" xml:space="preserve"><g><path fill="#FFF" d="M20.5,79.4c1.4,1.4,3.2,2.1,5,2.1s3.6-0.7,5-2.1L50,59.9l19.5,19.5c1.4,1.4,3.2,2.1,5,2.1s3.6-0.7,5-2.1   c2.7-2.7,2.7-7.2,0-9.9L59.9,50l19.6-19.6c2.7-2.7,2.7-7.2,0-9.9c-2.7-2.7-7.2-2.7-9.9,0L50,40.1L30.5,20.6c-2.7-2.7-7.2-2.7-9.9,0   c-2.7,2.7-2.7,7.2,0,9.9L40.1,50L20.5,69.6C17.8,72.3,17.8,76.7,20.5,79.4z"/></g></svg>