<?xml version="1.0" encoding="UTF-8" standalone="no"?>
<svg width="113px" height="22px" viewBox="0 0 113 22" version="1.1" xmlns="http://www.w3.org/2000/svg" xmlns:xlink="http://www.w3.org/1999/xlink">
    <!-- Generator: Sketch 43.2 (39069) - http://www.bohemiancoding.com/sketch -->
    <title>infobar_tags</title>
    <desc>Created with Sketch.</desc>
    <defs></defs>
    <g id="Page-1" stroke="none" stroke-width="1" fill="none" fill-rule="evenodd" stroke-linejoin="round">
        <g id="infobar_tags" transform="translate(0.000000, 1.000000)" stroke="#FFFFFF">
            <path d="M0.510658,0 L15.631763,15.121105" id="Shape" stroke-width="1.5"></path>
            <path d="M6.014072,0.00559 L23.376907,17.36842" id="Shape"></path>
            <path d="M11.517486,0.00559 L30.67458,19.16268" id="Shape" stroke-width="2"></path>
            <path d="M17.0209,0.00559 L28.761725,11.74641" id="Shape"></path>
            <path d="M22.524314,0.00559 L42.997197,20.47847" id="Shape" stroke-width="1.5"></path>
            <path d="M28.02773,0.00559 L41.802046,13.779904" id="Shape" stroke-width="2"></path>
            <path d="M33.531142,0.00559 L44.31503,10.78947" id="Shape"></path>
            <path d="M39.034557,0.00559 L59.14859,20.11962" id="Shape"></path>
            <path d="M44.53797,0.00559 L61.422336,16.88995" id="Shape" stroke-width="2"></path>
            <path d="M50.041385,0.00559 L59.6291,9.5933" id="Shape"></path>
            <path d="M55.5448,0.00559 L65.850217,10.311005" id="Shape" stroke-width="1.5"></path>
            <path d="M61.04821,0.00559 L73.14789,12.10526" id="Shape"></path>
            <path d="M66.551627,0.00559 L79.36901,12.82297" id="Shape" stroke-width="1.5"></path>
            <path d="M72.05504,0.00559 L81.16429,9.11483" id="Shape" stroke-width="2"></path>
            <path d="M77.558455,0.00559 L93.96435,16.41148" id="Shape" stroke-width="1.5"></path>
            <path d="M83.06187,0.00559 L93.486904,10.43062" id="Shape"></path>
            <path d="M88.56528,0.00559 L100.90419,12.3445" id="Shape" stroke-width="2"></path>
            <path d="M94.0687,0.00559 L105.92914,11.86603" id="Shape"></path>
            <path d="M99.57211,0.00559 L112.50911,12.94258" id="Shape"></path>
        </g>
    </g>
</svg>