<?xml version="1.0" encoding="UTF-8" standalone="no"?>
<svg width="319px" height="136px" viewBox="0 0 319 136" version="1.1" xmlns="http://www.w3.org/2000/svg" xmlns:xlink="http://www.w3.org/1999/xlink">
    <!-- Generator: Sketch 50 (54983) - http://www.bohemiancoding.com/sketch -->
    <title>Artboard</title>
    <desc>Created with Sketch.</desc>
    <defs></defs>
    <g id="Artboard" stroke="none" stroke-width="1" fill="none" fill-rule="evenodd">
        <g id="infobar_scroll_b" transform="translate(63.000000, 6.000000)" fill="#FFFFFF" fill-rule="nonzero">
            <g id="g4" transform="translate(129.033527, 41.322044)">
                <path d="M37.8001108,0.085714537 L16.2000475,0.085714537 C8.22859555,0.085714537 1.71429074,6.42859028 1.71429074,14.2286131 L0,50.1430041 C0,64.971619 12.2571788,77.0573688 27.4286518,77.0573688 C42.5144104,77.0573688 54.8573037,64.971619 54.8573037,50.1430041 L52.2858676,14.2286131 C52.2858676,6.42859028 45.7715628,0.085714537 37.8001108,0.085714537 Z M26.4000774,19.4571999 C26.4000774,18.9429127 26.8286501,18.4286255 27.4286518,18.4286255 C28.0286536,18.4286255 28.4572263,18.8571981 28.4572263,19.4571999 L28.4572263,35.0572456 C28.4572263,35.5715329 28.0286536,36.0858201 27.4286518,36.0858201 C26.9143646,36.0858201 26.4000774,35.6572474 26.4000774,35.0572456 L26.4000774,19.4571999 Z M27.4286518,73.1145001 C14.5714713,73.1145001 4.11429778,62.8287556 4.11429778,50.2287187 L5.82858852,14.3143277 C5.82858852,8.74288277 10.4571735,4.11429778 16.2000475,4.11429778 L25.4572175,4.11429778 L25.4572175,15.6000457 C24.0000704,16.3714766 23.0572105,17.8286237 23.0572105,19.5429144 L23.0572105,35.1429602 C23.0572105,37.02868 24.1714994,38.5715417 25.8000756,39.2572579 L25.8000756,42.8572685 C25.8000756,43.8001284 26.5715065,44.5715592 27.5143664,44.5715592 C28.4572263,44.5715592 29.2286571,43.8001284 29.2286571,42.8572685 L29.2286571,39.1715434 C30.8572333,38.4858271 31.9715223,36.9429654 31.9715223,35.0572456 L31.9715223,19.4571999 C31.9715223,17.7429092 30.9429479,16.285762 29.5715153,15.5143312 L29.5715153,4.02858324 L37.9715399,4.02858324 C43.7144139,4.02858324 48.3429989,8.5714537 48.3429989,14.2286131 L50.7430059,50.1430041 C50.7430059,62.8287556 40.2858324,73.1145001 27.4286518,73.1145001 Z" id="path6"></path>
            </g>
            <g id="g4273" transform="translate(0.320921, 0.956892)">
                <path d="M73.0127538,90.3171505 L72.9362055,61.6050644 C72.9362055,56.7877135 69.2554017,52.8668855 64.732567,52.8668855 C63.0536949,52.8668855 61.5266219,53.3339597 60.2538449,54.1448523 C59.5337722,50.1786143 56.3018786,47.2684828 52.3070971,47.2684828 C50.746291,47.2684828 49.3074431,47.7186904 48.0813735,48.4919576 L48.0813735,19.2505209 C48.0813735,14.4552262 44.5186357,10.6991716 39.9698524,10.6991716 C35.7700773,10.6991716 32.4162254,13.899927 31.9219053,18.1606812 C30.6815639,17.3588705 29.2167675,16.8930938 27.6248231,16.8930938 C23.0734449,16.8930938 19.5094097,20.647851 19.5094097,25.4392534 L19.5094097,62.6962016 C17.5541854,59.643353 15.7196219,57.4987042 15.5937714,57.3533922 C12.4786463,53.7050241 8.60452566,52.9084032 4.68499507,55.1088414 C0.66037279,57.3754485 -0.579968569,62.291404 1.79951475,66.5430762 L1.97726241,66.8609461 L2.2575069,67.0931857 C2.32497317,67.1489751 9.04435382,72.8122492 10.5805088,83.4848936 C10.811451,85.0781354 11.0034704,86.4962245 11.1786232,87.7871655 C11.6846202,91.509487 12.050495,94.1990557 12.7666753,97.0144749 L14.0744829,100.392978 C14.0835649,100.424116 14.0861598,100.456552 14.0965392,100.486393 C15.7585448,105.316718 21.7915859,116.549856 41.8537181,116.549856 L46.1352312,116.549856 C62.4620677,116.549856 73.0127538,106.257353 73.0127538,90.3288274 C73.0127538,90.3262325 73.0114564,90.3236377 73.0114564,90.3223402 C73.0114564,90.3223402 73.0127538,90.3197454 73.0127538,90.3171505 Z M46.1352312,112.660167 L41.8537181,112.660167 C29.9069993,112.660167 21.3271066,108.07505 18.1107821,100.059539 C18.1017001,100.03359 18.0991052,100.008939 18.0900232,99.984288 L16.5097557,95.9427992 C15.8675287,93.3790811 15.5172231,90.8062809 15.0358772,87.2655994 C14.859427,85.9629815 14.6648128,84.534513 14.4325731,82.9295943 C12.8639824,72.0273052 6.55588653,65.733481 5.05086982,64.3672891 C3.92340471,62.0851129 4.54617025,59.6537324 6.59221452,58.5029136 C8.0038164,57.7127798 10.1666292,56.9927072 12.6421222,59.8911618 C12.6914245,59.9469512 17.4244426,65.4739953 19.5094097,71.1891666 L19.5094097,75.0853434 C19.5094097,76.159614 20.379984,77.0314857 21.455552,77.0314857 C22.53112,77.0314857 23.4016943,76.159614 23.4016943,75.0853434 L23.4016943,25.4405508 C23.4016943,22.7873101 25.2167963,20.7866758 27.6248231,20.7866758 C30.0341472,20.7866758 31.8518441,22.7873101 31.8518441,25.4405508 L31.8518441,66.8220232 L31.8518441,70.9582243 C31.8518441,72.0324949 32.7224185,72.9043666 33.7979864,72.9043666 C34.8735544,72.9043666 35.7441287,72.0324949 35.7441287,70.9582243 L35.7441287,66.8220232 L35.7441287,25.4405508 L35.7441287,19.2505209 C35.7441287,16.5505728 37.5216054,14.5914562 39.9698524,14.5914562 C42.3752843,14.5914562 44.1890889,16.5946853 44.1890889,19.2505209 L44.1890889,55.8237244 L44.1890889,66.8207258 L44.1890889,70.9569269 C44.1890889,72.0311975 45.0609607,72.9030692 46.1352312,72.9030692 C47.2095017,72.9030692 48.0813735,72.0311975 48.0813735,70.9569269 L48.0813735,66.8207258 L48.0813735,55.8237244 C48.0813735,53.1211814 49.8588501,51.1607674 52.3070971,51.1607674 C54.7060419,51.1607674 56.5133594,53.165294 56.5133594,55.8237244 L56.5133594,61.2210257 L56.5133594,66.8207258 L56.5133594,71.9598389 C56.5133594,73.0341095 57.3852311,73.9059812 58.4595017,73.9059812 C59.5337722,73.9059812 60.405644,73.0341095 60.405644,71.9598389 L60.405644,66.8207258 L60.405644,61.2210257 C60.405644,58.6352513 62.2246383,56.7591701 64.732567,56.7591701 C67.1094555,56.7591701 69.0439209,58.9323624 69.0439209,61.6102542 L69.1204692,90.3275299 L69.1204692,90.3301248 C69.1204692,90.3301248 69.1204692,90.3301248 69.1204692,90.3314222 C69.1204692,106.793191 57.2464063,112.660167 46.1352312,112.660167 Z" id="path4"></path>
                <path d="M60.3498546,38.8209567 L62.8214553,40.4479316 L62.8214553,32.107602 C62.8214553,31.0320341 63.693327,30.1614597 64.7675976,30.1614597 C65.8418681,30.1614597 66.7137399,31.0320341 66.7137399,32.107602 L66.7137399,40.4440394 L69.1788535,38.8209567 C69.5084002,38.6042862 69.8807621,38.5004919 70.2479343,38.5004919 C70.8797818,38.5004919 71.5012499,38.8079824 71.8749093,39.376256 C72.4652391,40.2740763 72.2174303,41.4806845 71.31961,42.0723118 L65.8509501,45.6739724 C65.8133247,45.6973261 65.7873761,45.7064081 65.7614276,45.7206799 C65.7250996,45.7427361 65.6861767,45.7621976 65.6485513,45.781659 C65.6057362,45.8037153 65.5655159,45.8322587 65.5201059,45.8504227 C65.4539371,45.8789661 65.40204,45.8893455 65.3501428,45.9049147 C65.3034354,45.9191864 65.2580254,45.9373504 65.2087232,45.9490272 C65.1853695,45.9542169 65.1646106,45.9620015 65.1399595,45.9658938 C65.0880623,45.9762732 65.0348678,45.9775706 64.9816732,45.9827603 C64.914207,45.9892475 64.8467407,46.0022218 64.7792744,46.0022218 C64.7105107,46.0022218 64.6676956,45.9931398 64.6222856,45.9892475 C64.5457374,45.9840578 64.4704865,45.9814629 64.3952357,45.9658938 C64.3290668,45.9529195 64.2667903,45.9295658 64.2032163,45.9101044 C64.1461295,45.8919404 64.0877452,45.8802635 64.0319558,45.8569098 C63.9437307,45.8218793 63.8775618,45.7803615 63.8087981,45.7414387 C63.7919316,45.7323567 63.7763624,45.7245721 63.7594959,45.7141927 C63.738737,45.7025159 63.7179782,45.6947313 63.6985167,45.6830544 C63.6803527,45.6713776 58.2103955,42.0723118 58.2103955,42.0723118 C57.3125751,41.4819819 57.0634689,40.2753737 57.6537988,39.376256 C58.0287555,38.8079824 58.6502236,38.5004919 59.2820712,38.5004919 C59.6492433,38.5004919 60.0203078,38.6042862 60.3498546,38.8209567 Z" id="path3364-2"></path>
                <path d="M152.016248,28.6594969 L154.487849,30.2864719 L154.487849,21.9461423 C154.487849,20.8705743 155.359721,20 156.433991,20 C157.508262,20 158.380133,20.8705743 158.380133,21.9461423 L158.380133,30.2825796 L160.845247,28.6594969 C161.174794,28.4428264 161.547156,28.3390322 161.914328,28.3390322 C162.546175,28.3390322 163.167643,28.6465227 163.541303,29.2147962 C164.131633,30.1126165 163.883824,31.3192247 162.986004,31.910852 L157.517344,35.5125127 C157.479718,35.5358664 157.45377,35.5449484 157.427821,35.5592201 C157.391493,35.5812764 157.35257,35.6007378 157.314945,35.6201992 C157.27213,35.6422555 157.231909,35.6707989 157.186499,35.6889629 C157.120331,35.7175063 157.068434,35.7278858 157.016536,35.7434549 C156.969829,35.7577266 156.924419,35.7758906 156.875117,35.7875675 C156.851763,35.7927572 156.831004,35.8005417 156.806353,35.804434 C156.754456,35.8148135 156.701261,35.8161109 156.648067,35.8213006 C156.580601,35.8277877 156.513134,35.840762 156.445668,35.840762 C156.376904,35.840762 156.334089,35.83168 156.288679,35.8277877 C156.212131,35.822598 156.13688,35.8200032 156.061629,35.804434 C155.99546,35.7914598 155.933184,35.768106 155.86961,35.7486446 C155.812523,35.7304806 155.754139,35.7188038 155.698349,35.6954501 C155.610124,35.6604195 155.543955,35.6189018 155.475192,35.579979 C155.458325,35.570897 155.442756,35.5631124 155.425889,35.552733 C155.405131,35.5410561 155.384372,35.5332715 155.36491,35.5215947 C155.346746,35.5099178 149.876789,31.910852 149.876789,31.910852 C148.978969,31.3205222 148.729862,30.1139139 149.320192,29.2147962 C149.695149,28.6465227 150.316617,28.3390322 150.948465,28.3390322 C151.315637,28.3390322 151.686701,28.4428264 152.016248,28.6594969 Z" id="path3364-2-copy"></path>
                <path d="M60.3498546,18.8222527 L62.8214553,20.4492276 L62.8214553,12.108898 C62.8214553,11.0333301 63.693327,10.1627557 64.7675976,10.1627557 C65.8418681,10.1627557 66.7137399,11.0333301 66.7137399,12.108898 L66.7137399,20.4453354 L69.1788535,18.8222527 C69.5084002,18.6055822 69.8807621,18.5017879 70.2479343,18.5017879 C70.8797818,18.5017879 71.5012499,18.8092784 71.8749093,19.377552 C72.4652391,20.2753723 72.2174303,21.4819805 71.31961,22.0736078 L65.8509501,25.6752684 C65.8133247,25.6986221 65.7873761,25.7077041 65.7614276,25.7219759 C65.7250996,25.7440321 65.6861767,25.7634936 65.6485513,25.782955 C65.6057362,25.8050113 65.5655159,25.8335547 65.5201059,25.8517187 C65.4539371,25.8802621 65.40204,25.8906415 65.3501428,25.9062107 C65.3034354,25.9204824 65.2580254,25.9386464 65.2087232,25.9503232 C65.1853695,25.9555129 65.1646106,25.9632975 65.1399595,25.9671898 C65.0880623,25.9775692 65.0348678,25.9788666 64.9816732,25.9840563 C64.914207,25.9905435 64.8467407,26.0035178 64.7792744,26.0035178 C64.7105107,26.0035178 64.6676956,25.9944358 64.6222856,25.9905435 C64.5457374,25.9853538 64.4704865,25.9827589 64.3952357,25.9671898 C64.3290668,25.9542155 64.2667903,25.9308618 64.2032163,25.9114004 C64.1461295,25.8932364 64.0877452,25.8815595 64.0319558,25.8582058 C63.9437307,25.8231753 63.8775618,25.7816575 63.8087981,25.7427347 C63.7919316,25.7336527 63.7763624,25.7258681 63.7594959,25.7154887 C63.738737,25.7038119 63.7179782,25.6960273 63.6985167,25.6843504 C63.6803527,25.6726736 58.2103955,22.0736078 58.2103955,22.0736078 C57.3125751,21.4832779 57.0634689,20.2766697 57.6537988,19.377552 C58.0287555,18.8092784 58.6502236,18.5017879 59.2820712,18.5017879 C59.6492433,18.5017879 60.0203078,18.6055822 60.3498546,18.8222527 Z" id="path3364-2" transform="translate(64.764552, 18.083137) scale(-1, 1) rotate(-180.000000) translate(-64.764552, -18.083137) "></path>
                <path d="M152.016248,8.65949693 L154.487849,10.2864719 L154.487849,1.9461423 C154.487849,0.870574322 155.359721,0 156.433991,0 C157.508262,0 158.380133,0.870574322 158.380133,1.9461423 L158.380133,10.2825796 L160.845247,8.65949693 C161.174794,8.44282643 161.547156,8.33903217 161.914328,8.33903217 C162.546175,8.33903217 163.167643,8.64652265 163.541303,9.2147962 C164.131633,10.1126165 163.883824,11.3192247 162.986004,11.910852 L157.517344,15.5125127 C157.479718,15.5358664 157.45377,15.5449484 157.427821,15.5592201 C157.391493,15.5812764 157.35257,15.6007378 157.314945,15.6201992 C157.27213,15.6422555 157.231909,15.6707989 157.186499,15.6889629 C157.120331,15.7175063 157.068434,15.7278858 157.016536,15.7434549 C156.969829,15.7577266 156.924419,15.7758906 156.875117,15.7875675 C156.851763,15.7927572 156.831004,15.8005417 156.806353,15.804434 C156.754456,15.8148135 156.701261,15.8161109 156.648067,15.8213006 C156.580601,15.8277877 156.513134,15.840762 156.445668,15.840762 C156.376904,15.840762 156.334089,15.83168 156.288679,15.8277877 C156.212131,15.822598 156.13688,15.8200032 156.061629,15.804434 C155.99546,15.7914598 155.933184,15.768106 155.86961,15.7486446 C155.812523,15.7304806 155.754139,15.7188038 155.698349,15.6954501 C155.610124,15.6604195 155.543955,15.6189018 155.475192,15.579979 C155.458325,15.570897 155.442756,15.5631124 155.425889,15.552733 C155.405131,15.5410561 155.384372,15.5332715 155.36491,15.5215947 C155.346746,15.5099178 149.876789,11.910852 149.876789,11.910852 C148.978969,11.3205222 148.729862,10.1139139 149.320192,9.2147962 C149.695149,8.64652265 150.316617,8.33903217 150.948465,8.33903217 C151.315637,8.33903217 151.686701,8.44282643 152.016248,8.65949693 Z" id="path3364-2-copy-2" transform="translate(156.430946, 7.920381) scale(-1, 1) rotate(-180.000000) translate(-156.430946, -7.920381) "></path>
            </g>
        </g>
    </g>
</svg>