<?xml version="1.0" encoding="UTF-8" standalone="no"?>
<svg width="67px" height="241px" viewBox="0 0 67 241" version="1.1" xmlns="http://www.w3.org/2000/svg" xmlns:xlink="http://www.w3.org/1999/xlink" xmlns:sketch="http://www.bohemiancoding.com/sketch/ns">
    <!-- Generator: Sketch 3.3.2 (12043) - http://www.bohemiancoding.com/sketch -->
    <title>info</title>
    <desc>Created with Sketch.</desc>
    <defs></defs>
    <g id="Page-1" stroke="none" stroke-width="1" fill="none" fill-rule="evenodd" sketch:type="MSPage">
        <g id="Group" sketch:type="MSLayerGroup" fill="#FFFFFF">
            <path d="M42.2171849,25.954648 C42.0291323,25.954648 41.5768774,26.0196798 41.0860833,26.1725045 C40.9593219,24.4942201 39.7604286,23.1675717 38.0507751,23.1675717 C37.3607846,23.1675717 36.9145659,23.3840347 36.4502385,23.7519287 L36.4502385,16.3355187 C38.3075481,15.2657459 39.5301222,13.2139932 39.5301222,10.8579848 C39.5301222,7.40015209 36.6396841,4.58706308 33.1836953,4.58706308 C30.8759881,4.58706308 28.7307955,5.85704084 27.6400905,7.86373578 C27.4585384,7.84701332 27.2630566,7.83865209 27.0893982,7.83865209 C23.6334093,7.83865209 20.8116917,10.6517411 20.8116917,14.1095738 C20.8116917,16.4302793 22.0746622,18.4564838 23.9533309,19.5392629 L24.1539203,29.0004579 C23.7787438,29.204379 23.2076211,29.5773827 22.4795557,30.2388488 C19.9587223,32.5316836 19.1336125,38.0747138 21.9804038,42.3649533 C25.1494383,47.1415376 28.8617358,49.1802839 34.3965185,49.1802839 C40.2605092,49.1802839 42.228793,46.2362023 43.7355355,43.2205857 C45.1851656,40.3201683 45.208382,29.2127402 45.208382,28.7417243 C45.2079176,27.2566772 43.8172571,25.954648 42.2171849,25.954648 L42.2171849,25.954648 Z M42.4827801,42.5972097 C41.0637956,45.4367759 39.4762602,47.7867457 34.3960541,47.7867457 C29.3181697,47.7867457 26.0571984,45.9932621 23.1398293,41.5947912 C21.4399267,39.0325391 20.7021104,33.7370941 23.4151754,31.2700671 C23.708166,31.0034368 23.9667964,30.7957996 24.1859589,30.6332201 L24.2899683,35.4934167 C24.2983262,35.8780332 24.62707,36.1808955 25.0013178,36.1776439 C25.3857809,36.1683537 25.6913084,35.8538785 25.6834148,35.469262 L25.3388839,19.3720383 L25.3235611,18.6576178 L25.2265166,14.1239737 C25.2265166,12.8934795 25.9917282,12.0480663 27.0866122,12.0480663 C28.1814962,12.0480663 28.9471721,12.9366792 28.9476364,14.192257 L29.1031861,18.5400961 L29.1561194,20.0214271 L29.4152141,27.2562127 C29.4286796,27.6320035 29.5651919,28.0444908 30.1219204,28.0444908 C30.678649,28.0444908 30.8179472,27.6236422 30.8267694,27.2469224 L31.2075179,11.0893121 C31.2075179,10.0302231 32.164961,9.23126122 33.1618719,9.23126122 C34.2883302,9.23126122 35.0572563,10.1941961 35.0572563,11.0893121 L35.0572563,15.4441188 L35.0572563,16.9026887 L35.0572563,26.4182317 C35.0572563,26.8028483 35.1380493,27.1150008 35.5225124,27.1150008 C35.9069755,27.1150008 36.0648468,26.8028483 36.0648468,26.4182317 C36.0648468,25.3935167 37.065008,24.5601809 38.0893143,24.5601809 C39.1136205,24.5601809 40.1648577,25.3935167 40.1648577,26.4182317 L40.1648577,29.4375644 C40.1648577,29.8221809 40.4768858,30.1343335 40.8613488,30.1343335 C41.2458119,30.1343335 41.5578399,29.8221809 41.5578399,29.4375644 L41.5578399,27.6631258 C41.5578399,27.5270236 42.1219977,27.3472572 42.4484199,27.3472572 C43.2763157,27.3472572 43.8794769,28.0240522 43.8794769,28.7407953 C43.8794769,31.8609272 43.5651273,40.4316514 42.4827801,42.5972097 L42.4827801,42.5972097 Z" id="Shape" sketch:type="MSShapeGroup"></path>
            <g id="Shape-+-Shape" transform="translate(6.437044, 0.000000)" sketch:type="MSShapeGroup">
                <path d="M5.80392266,4.02305257 L7.66123226,4.02305257 L7.66123226,18.1326263 C7.66123226,18.5971391 8.12555966,19.0616518 8.58988706,19.0616518 C9.05421446,19.0616518 9.51854186,18.5971391 9.51854186,18.1326263 L9.51854186,4.02305257 L11.3758515,4.02305257 C11.6572339,4.02305257 11.9112209,3.94036931 12.0194092,3.68024219 C12.1275975,3.42011507 12.0676993,3.16323953 11.8685028,2.96396358 L9.08253843,0.198719377 C8.81044257,-0.0734850744 8.36979587,-0.0623367692 8.09770001,0.20940317 L5.31173561,3.00205362 C5.11253916,3.20132958 5.05264092,3.41686348 5.16082921,3.67745511 C5.26901749,3.93804675 5.52254025,4.02305257 5.80392266,4.02305257 L5.80392266,4.02305257 Z" id="Shape"></path>
                <path d="M3.97540135,24.4152529 L6.76136575,21.6281766 C6.96056221,21.4289006 7.02046044,21.0424261 6.91227216,20.7818344 C6.80408388,20.5212428 6.55009679,20.2643673 6.26871438,20.2643673 L4.41140478,20.2643673 L4.41140478,6.50317803 C4.41140478,6.03866532 3.94707738,5.5741526 3.48274998,5.5741526 C3.01842258,5.5741526 2.55409518,6.03866532 2.55409518,6.50317803 L2.55409518,20.2643673 L0.696785583,20.2643673 C0.415403178,20.2643673 0.161416091,20.5212428 0.0532278063,20.7813699 C-0.0549604779,21.041497 0.00493775669,21.3847719 0.204134211,21.5840479 L2.99009861,24.3929563 C3.26219447,24.6656253 3.7033055,24.6869928 3.97540135,24.4152529 L3.97540135,24.4152529 Z" id="Shape"></path>
            </g>
            <g id="Shape-+-Shape-Copy" transform="translate(6.437044, 91.012085)" sketch:type="MSShapeGroup">
                <path d="M5.80392266,4.02305257 L7.66123226,4.02305257 L7.66123226,18.1326263 C7.66123226,18.5971391 8.12555966,19.0616518 8.58988706,19.0616518 C9.05421446,19.0616518 9.51854186,18.5971391 9.51854186,18.1326263 L9.51854186,4.02305257 L11.3758515,4.02305257 C11.6572339,4.02305257 11.9112209,3.94036931 12.0194092,3.68024219 C12.1275975,3.42011507 12.0676993,3.16323953 11.8685028,2.96396358 L9.08253843,0.198719377 C8.81044257,-0.0734850744 8.36979587,-0.0623367692 8.09770001,0.20940317 L5.31173561,3.00205362 C5.11253916,3.20132958 5.05264092,3.41686348 5.16082921,3.67745511 C5.26901749,3.93804675 5.52254025,4.02305257 5.80392266,4.02305257 L5.80392266,4.02305257 Z" id="Shape"></path>
                <path d="M3.97540135,24.4152529 L6.76136575,21.6281766 C6.96056221,21.4289006 7.02046044,21.0424261 6.91227216,20.7818344 C6.80408388,20.5212428 6.55009679,20.2643673 6.26871438,20.2643673 L4.41140478,20.2643673 L4.41140478,6.50317803 C4.41140478,6.03866532 3.94707738,5.5741526 3.48274998,5.5741526 C3.01842258,5.5741526 2.55409518,6.03866532 2.55409518,6.50317803 L2.55409518,20.2643673 L0.696785583,20.2643673 C0.415403178,20.2643673 0.161416091,20.5212428 0.0532278063,20.7813699 C-0.0549604779,21.041497 0.00493775669,21.3847719 0.204134211,21.5840479 L2.99009861,24.3929563 C3.26219447,24.6656253 3.7033055,24.6869928 3.97540135,24.4152529 L3.97540135,24.4152529 Z" id="Shape"></path>
            </g>
            <path d="M42.3669299,200.185536 C42.1779486,200.185536 41.6982984,200.250568 41.2051827,200.403857 C41.07935,198.725573 39.6733666,197.39846 37.9641775,197.39846 C37.194787,197.39846 36.4866877,197.667413 35.9294948,198.116132 C35.5176364,196.858232 34.4287886,196.004922 33.0803819,196.004922 C32.1874803,196.004922 31.3930161,196.372351 30.8265367,196.972502 L30.6835238,192.970725 C32.2687376,191.831739 33.3041877,189.973224 33.3041877,187.875949 C33.3041877,184.418116 30.4922209,181.605027 27.0357678,181.605027 C23.5793146,181.605027 20.7673479,184.418116 20.7673479,187.875949 C20.7673479,190.280267 22.1315418,192.364071 24.1225777,193.414799 L24.3324537,203.231346 C23.9572771,203.435267 23.3880117,203.808271 22.659482,204.470201 C20.1386486,206.762107 19.3135388,212.305602 22.1603301,216.596306 C25.3293646,221.372426 29.0425908,223.411172 34.5773734,223.411172 C40.4413641,223.411172 42.4031474,220.46709 43.9103541,217.451474 C45.3599843,214.551056 45.3767001,203.443628 45.3767001,202.972612 C45.3771644,201.487565 43.9707167,200.185536 42.3669299,200.185536 L42.3669299,200.185536 Z M22.1607944,187.875949 C22.1607944,185.186421 24.3477765,182.998566 27.0362321,182.998566 C29.7246877,182.998566 31.9116698,185.186421 31.9116698,187.875949 C31.9116698,189.144998 31.4176255,190.294667 30.6194466,191.162377 L30.5186876,188.340462 C30.5186876,186.354205 29.1205978,184.856616 27.2665385,184.856616 C25.4124792,184.856616 24.0143894,186.354205 24.0143894,188.355326 L24.0868245,191.742088 C22.9208984,190.850689 22.1607944,189.453899 22.1607944,187.875949 L22.1607944,187.875949 Z M42.6645637,216.828098 C41.2455792,219.667199 39.6580438,222.017634 34.5778377,222.017634 C29.4999533,222.017634 26.238982,220.223686 23.3216129,215.825679 C21.6217103,213.263427 20.8838941,207.967982 23.5969591,205.500955 C23.8899496,205.234789 24.14858,205.026223 24.3677425,204.864108 L24.4717519,209.722447 C24.4801098,210.107063 24.7865659,210.422467 25.1831014,210.404351 C25.5675645,210.39599 25.8726276,210.077799 25.8647341,209.692718 L25.4078359,188.340462 C25.4078359,187.109968 26.1721188,186.250155 27.2670028,186.250155 C28.3618868,186.250155 29.1261697,187.109968 29.1266341,188.365546 L29.5909615,201.371902 C29.6034983,201.729112 29.8848807,202.018968 30.2410198,202.042193 C30.5897297,202.064026 30.9138302,201.815511 30.9737285,201.462946 L31.326153,199.372639 C31.3326535,199.334084 31.3359038,199.29553 31.3359038,199.256511 C31.3359038,198.197422 32.0862569,197.39846 33.0813105,197.39846 C34.2035899,197.39846 34.7148143,198.361395 34.7148143,199.256511 L34.7148143,200.650049 C34.7148143,201.03513 35.0268423,201.346818 35.4113054,201.346818 C35.7957685,201.346818 36.1077965,201.03513 36.1077965,200.650049 C36.1077965,199.625334 36.9407999,198.791998 37.9651061,198.791998 C38.9894124,198.791998 39.8224157,199.625334 39.8224157,200.650049 L39.8224157,203.669382 C39.8224157,204.053998 40.1344437,204.366151 40.5189068,204.366151 C40.9033699,204.366151 41.2153979,204.053998 41.2153979,203.669382 L41.2153979,201.894943 C41.4939944,201.759305 42.0400434,201.57861 42.3678585,201.57861 C43.1990046,201.57861 43.9846465,202.255869 43.9846465,202.972148 C43.9841822,206.09228 43.7464466,214.663468 42.6645637,216.828098 L42.6645637,216.828098 Z" id="Shape" sketch:type="MSShapeGroup"></path>
            <path d="M2.14884753,66.1363402 C3.1916706,66.1363402 3.93428702,65.4807735 3.93428702,64.4697791 C3.93428702,63.6957366 3.48397706,63.1349506 2.70975994,62.7874213 L2.4095533,62.6531486 C1.89604194,62.4240952 1.65113652,62.2661273 1.65113652,61.9738868 C1.65113652,61.7211382 1.87234141,61.5868655 2.08564613,61.5868655 C2.3463519,61.5868655 2.52015574,61.657951 2.80456203,62.0054803 L3.65778091,61.1050635 C3.18377042,60.5521759 2.70975994,60.4021064 2.08564613,60.4021064 C1.19292639,60.4021064 0.379208388,61.0418763 0.379208388,62.0212771 C0.379208388,62.7795229 0.845318697,63.403496 1.69063739,63.7826189 L2.00664438,63.92479 C2.48065487,64.1380466 2.66235889,64.2960145 2.66235889,64.5487631 C2.66235889,64.80941 2.49645522,64.9515811 2.12514701,64.9515811 C1.73803844,64.9515811 1.33512953,64.6435438 1.09022411,64.2565225 L0.134302971,65.0384635 C0.521411533,65.7651157 1.24822761,66.1363402 2.14884753,66.1363402 L2.14884753,66.1363402 Z M7.24446024,66.1363402 C8.20828156,66.1363402 9.0694006,65.6545382 9.59081214,64.9199876 L8.63489099,64.1380466 C8.3504847,64.5961534 7.84487352,64.9199876 7.24446024,64.9199876 C6.33594014,64.9199876 5.64862494,64.1696402 5.64862494,63.2692233 C5.64862494,62.3688064 6.33594014,61.618459 7.24446024,61.618459 C7.84487352,61.618459 8.3504847,61.9422932 8.63489099,62.4004 L9.59081214,61.618459 C9.0694006,60.8839084 8.20828156,60.4021064 7.24446024,60.4021064 C5.66442529,60.4021064 4.37669681,61.6895446 4.37669681,63.2692233 C4.37669681,64.848902 5.66442529,66.1363402 7.24446024,66.1363402 L7.24446024,66.1363402 Z M13.2564932,66.073153 L14.7654266,66.073153 L12.9404862,63.6957366 C13.5883006,63.442988 14.0228102,62.8348117 14.0228102,62.1318546 C14.0228102,61.215641 13.2722936,60.4652936 12.3558733,60.4652936 L10.2386265,60.4652936 L10.2386265,66.073153 L11.5026544,66.073153 L11.5026544,63.7984157 L11.5184548,63.7984157 L13.2564932,66.073153 Z M11.5026544,62.7321325 L11.5026544,61.618459 L12.2136701,61.618459 C12.5533777,61.618459 12.7982831,61.8712076 12.7982831,62.179245 C12.7982831,62.4872823 12.5533777,62.7321325 12.2136701,62.7321325 L11.5026544,62.7321325 Z M17.4751865,64.9199876 C16.5666664,64.9199876 15.8793512,64.1696402 15.8793512,63.2692233 C15.8793512,62.3688064 16.5666664,61.618459 17.4751865,61.618459 C18.3837066,61.618459 19.0710218,62.3688064 19.0710218,63.2692233 C19.0710218,64.1696402 18.3837066,64.9199876 17.4751865,64.9199876 L17.4751865,64.9199876 Z M17.4751865,66.1363402 C19.0552215,66.1363402 20.34295,64.848902 20.34295,63.2692233 C20.34295,61.6895446 19.0552215,60.4021064 17.4751865,60.4021064 C15.8951516,60.4021064 14.6074231,61.6895446 14.6074231,63.2692233 C14.6074231,64.848902 15.8951516,66.1363402 17.4751865,66.1363402 L17.4751865,66.1363402 Z M21.1408676,66.073153 L24.5853438,66.073153 L24.5853438,64.8173084 L22.4048956,64.8173084 L22.4048956,60.4652936 L21.1408676,60.4652936 L21.1408676,66.073153 Z M25.2331581,66.073153 L28.6776343,66.073153 L28.6776343,64.8173084 L26.4971861,64.8173084 L26.4971861,60.4652936 L25.2331581,60.4652936 L25.2331581,66.073153 Z M32.0273084,66.073153 L33.2913364,66.073153 L33.2913364,61.7132398 L34.6422662,61.7132398 L34.6422662,60.4652936 L30.6842787,60.4652936 L30.6842787,61.7132398 L32.0273084,61.7132398 L32.0273084,66.073153 Z M37.7549351,64.9199876 C36.846415,64.9199876 36.1590998,64.1696402 36.1590998,63.2692233 C36.1590998,62.3688064 36.846415,61.618459 37.7549351,61.618459 C38.6634552,61.618459 39.3507704,62.3688064 39.3507704,63.2692233 C39.3507704,64.1696402 38.6634552,64.9199876 37.7549351,64.9199876 L37.7549351,64.9199876 Z M37.7549351,66.1363402 C39.33497,66.1363402 40.6226985,64.848902 40.6226985,63.2692233 C40.6226985,61.6895446 39.33497,60.4021064 37.7549351,60.4021064 C36.1749001,60.4021064 34.8871717,61.6895446 34.8871717,63.2692233 C34.8871717,64.848902 36.1749001,66.1363402 37.7549351,66.1363402 L37.7549351,66.1363402 Z M42.6925443,66.073153 L47.2825458,66.073153 L47.2825458,64.8252068 L44.849292,64.8252068 L47.4484495,60.4652936 L43.0243516,60.4652936 L43.0243516,61.7132398 L45.2917018,61.7132398 L42.6925443,66.073153 Z M50.3794143,64.9199876 C49.4708942,64.9199876 48.783579,64.1696402 48.783579,63.2692233 C48.783579,62.3688064 49.4708942,61.618459 50.3794143,61.618459 C51.2879344,61.618459 51.9752496,62.3688064 51.9752496,63.2692233 C51.9752496,64.1696402 51.2879344,64.9199876 50.3794143,64.9199876 L50.3794143,64.9199876 Z M50.3794143,66.1363402 C51.9594493,66.1363402 53.2471778,64.848902 53.2471778,63.2692233 C53.2471778,61.6895446 51.9594493,60.4021064 50.3794143,60.4021064 C48.7993794,60.4021064 47.5116509,61.6895446 47.5116509,63.2692233 C47.5116509,64.848902 48.7993794,66.1363402 50.3794143,66.1363402 L50.3794143,66.1363402 Z M56.6521531,64.9199876 C55.743633,64.9199876 55.0563178,64.1696402 55.0563178,63.2692233 C55.0563178,62.3688064 55.743633,61.618459 56.6521531,61.618459 C57.5606732,61.618459 58.2479884,62.3688064 58.2479884,63.2692233 C58.2479884,64.1696402 57.5606732,64.9199876 56.6521531,64.9199876 L56.6521531,64.9199876 Z M56.6521531,66.1363402 C58.232188,66.1363402 59.5199165,64.848902 59.5199165,63.2692233 C59.5199165,61.6895446 58.232188,60.4021064 56.6521531,60.4021064 C55.0721181,60.4021064 53.7843896,61.6895446 53.7843896,63.2692233 C53.7843896,64.848902 55.0721181,66.1363402 56.6521531,66.1363402 L56.6521531,66.1363402 Z M60.3178341,66.073153 L61.5818621,66.073153 L61.5818621,63.3245121 L63.114496,64.8568004 L64.6471299,63.3245121 L64.6471299,66.073153 L65.9111579,66.073153 L65.9111579,60.4021064 L63.114496,63.2060362 L60.3178341,60.4021064 L60.3178341,66.073153 Z" id="SCROLL-TO-ZOOM" sketch:type="MSShapeGroup"></path>
            <path d="M5.79525469,240.309164 C6.75907601,240.309164 7.62019506,239.827362 8.14160659,239.092812 L7.18568545,238.310871 C6.90127916,238.768977 6.39566797,239.092812 5.79525469,239.092812 C4.8867346,239.092812 4.1994194,238.342464 4.1994194,237.442047 C4.1994194,236.54163 4.8867346,235.791283 5.79525469,235.791283 C6.39566797,235.791283 6.90127916,236.115117 7.18568545,236.573224 L8.14160659,235.791283 C7.62019506,235.056732 6.75907601,234.57493 5.79525469,234.57493 C4.21521975,234.57493 2.92749126,235.862369 2.92749126,237.442047 C2.92749126,239.021726 4.21521975,240.309164 5.79525469,240.309164 L5.79525469,240.309164 Z M8.78942092,240.245977 L12.2338971,240.245977 L12.2338971,238.990132 L10.0534489,238.990132 L10.0534489,234.638118 L8.78942092,234.638118 L8.78942092,240.245977 Z M12.8817114,240.245977 L14.1457394,240.245977 L14.1457394,234.638118 L12.8817114,234.638118 L12.8817114,240.245977 Z M17.8114205,240.309164 C18.7752418,240.309164 19.6363608,239.827362 20.1577724,239.092812 L19.2018512,238.310871 C18.9174449,238.768977 18.4118338,239.092812 17.8114205,239.092812 C16.9029004,239.092812 16.2155852,238.342464 16.2155852,237.442047 C16.2155852,236.54163 16.9029004,235.791283 17.8114205,235.791283 C18.4118338,235.791283 18.9174449,236.115117 19.2018512,236.573224 L20.1577724,235.791283 C19.6363608,235.056732 18.7752418,234.57493 17.8114205,234.57493 C16.2313855,234.57493 14.943657,235.862369 14.943657,237.442047 C14.943657,239.021726 16.2313855,240.309164 17.8114205,240.309164 L17.8114205,240.309164 Z M20.8055867,240.245977 L22.0696147,240.245977 L22.0696147,237.615812 L24.1710611,240.245977 L25.7352957,240.245977 L23.5153466,237.465742 L25.4824901,234.638118 L24.028858,234.638118 L22.0696147,237.449946 L22.0696147,234.638118 L20.8055867,234.638118 L20.8055867,240.245977 Z M28.8084637,240.245977 L30.0724917,240.245977 L30.0724917,235.886064 L31.4234216,235.886064 L31.4234216,234.638118 L27.465434,234.638118 L27.465434,235.886064 L28.8084637,235.886064 L28.8084637,240.245977 Z M34.5360904,239.092812 C33.6275703,239.092812 32.9402551,238.342464 32.9402551,237.442047 C32.9402551,236.54163 33.6275703,235.791283 34.5360904,235.791283 C35.4446105,235.791283 36.1319257,236.54163 36.1319257,237.442047 C36.1319257,238.342464 35.4446105,239.092812 34.5360904,239.092812 L34.5360904,239.092812 Z M34.5360904,240.309164 C36.1161254,240.309164 37.4038538,239.021726 37.4038538,237.442047 C37.4038538,235.862369 36.1161254,234.57493 34.5360904,234.57493 C32.9560555,234.57493 31.668327,235.862369 31.668327,237.442047 C31.668327,239.021726 32.9560555,240.309164 34.5360904,240.309164 L34.5360904,240.309164 Z M41.5593457,240.309164 C42.6021688,240.309164 43.3447852,239.653598 43.3447852,238.642603 C43.3447852,237.868561 42.8944753,237.307775 42.1202582,236.960245 L41.8200515,236.825973 C41.3065402,236.596919 41.0616347,236.438951 41.0616347,236.146711 C41.0616347,235.893962 41.2828396,235.759689 41.4961443,235.759689 C41.7568501,235.759689 41.930654,235.830775 42.2150603,236.178304 L43.0682791,235.277887 C42.5942686,234.725 42.1202582,234.57493 41.4961443,234.57493 C40.6034246,234.57493 39.7897066,235.2147 39.7897066,236.194101 C39.7897066,236.952347 40.2558169,237.57632 41.1011356,237.955443 L41.4171426,238.097614 C41.8911531,238.310871 42.0728571,238.468838 42.0728571,238.721587 C42.0728571,238.982234 41.9069534,239.124405 41.5356452,239.124405 C41.1485367,239.124405 40.7456277,238.816368 40.5007223,238.429347 L39.5448012,239.211287 C39.9319098,239.93794 40.6587258,240.309164 41.5593457,240.309164 L41.5593457,240.309164 Z M44.0479008,240.245977 L47.5239777,240.245977 L47.5239777,238.998031 L45.3119287,238.998031 L45.3119287,238.050224 L47.0499672,238.050224 L47.0499672,236.833871 L45.3119287,236.833871 L45.3119287,235.886064 L47.5239777,235.886064 L47.5239777,234.638118 L44.0479008,234.638118 L44.0479008,240.245977 Z M48.3692964,240.245977 L51.8137726,240.245977 L51.8137726,238.990132 L49.6333243,238.990132 L49.6333243,234.638118 L48.3692964,234.638118 L48.3692964,240.245977 Z M52.4615869,240.245977 L55.9376638,240.245977 L55.9376638,238.998031 L53.7256148,238.998031 L53.7256148,238.050224 L55.4636533,238.050224 L55.4636533,236.833871 L53.7256148,236.833871 L53.7256148,235.886064 L55.9376638,235.886064 L55.9376638,234.638118 L52.4615869,234.638118 L52.4615869,240.245977 Z M59.3900401,240.309164 C60.3538615,240.309164 61.2149805,239.827362 61.736392,239.092812 L60.7804709,238.310871 C60.4960646,238.768977 59.9904534,239.092812 59.3900401,239.092812 C58.48152,239.092812 57.7942048,238.342464 57.7942048,237.442047 C57.7942048,236.54163 58.48152,235.791283 59.3900401,235.791283 C59.9904534,235.791283 60.4960646,236.115117 60.7804709,236.573224 L61.736392,235.791283 C61.2149805,235.056732 60.3538615,234.57493 59.3900401,234.57493 C57.8100052,234.57493 56.5222767,235.862369 56.5222767,237.442047 C56.5222767,239.021726 57.8100052,240.309164 59.3900401,240.309164 L59.3900401,240.309164 Z M63.45073,240.245977 L64.7147579,240.245977 L64.7147579,235.886064 L66.0656878,235.886064 L66.0656878,234.638118 L62.1077002,234.638118 L62.1077002,235.886064 L63.45073,235.886064 L63.45073,240.245977 Z" id="CLICK-TO-SELECT" sketch:type="MSShapeGroup"></path>
            <path d="M42.675485,114.16031 C42.4861169,114.16031 42.005485,114.225435 41.51136,114.378942 C41.3852697,112.698272 39.9764086,111.369273 38.2637211,111.369273 C37.4927558,111.369273 36.7832072,111.638608 36.2248739,112.087965 C35.8121725,110.828277 34.7210961,109.973755 33.3699294,109.973755 C32.4752002,109.973755 31.67911,110.341706 31.1114711,110.94271 L30.9681655,106.935245 C32.5566239,105.794641 33.5941933,103.933485 33.5941933,101.833229 C33.5941933,98.3704823 30.7764711,95.5533953 27.3129433,95.5533953 C23.8494155,95.5533953 21.0316933,98.3704823 21.0316933,101.833229 C21.0316933,104.240964 22.3986794,106.32773 24.3937905,107.379951 L24.6040961,117.210449 C24.2281516,117.41466 23.6577211,117.788194 22.9277002,118.451065 C20.4017072,120.746228 19.5749086,126.297601 22.4275266,130.594403 C25.6030475,135.37731 29.3238739,137.418954 34.869985,137.418954 C40.745978,137.418954 42.7117766,134.470689 44.2220683,131.450786 C45.6746655,128.546247 45.6914155,117.423033 45.6914155,116.951348 C45.6918808,115.46419 44.2825544,114.16031 42.675485,114.16031 L42.675485,114.16031 Z M42.973728,130.826524 C41.5518391,133.669661 39.9610544,136.023436 34.8704502,136.023436 C29.7821725,136.023436 26.5145266,134.226938 23.5911864,129.822681 C21.8878044,127.256788 21.148478,121.953817 23.8670961,119.483284 C24.1606864,119.21674 24.4198461,119.007877 24.6394572,118.845532 L24.7436794,123.710775 C24.7520544,124.095938 25.0744919,124.41179 25.456485,124.393649 C25.841735,124.385275 26.1474225,124.066632 26.1395127,123.681004 L25.6816794,102.298402 C25.6816794,101.066159 26.4475266,100.205124 27.5446516,100.205124 C28.6417766,100.205124 29.4076239,101.066159 29.4080891,102.323521 L29.8733669,115.348362 C29.8859294,115.70608 30.1678877,115.996348 30.5247558,116.019606 C30.8746447,116.04147 31.1989433,115.792602 31.2589641,115.439536 L31.61211,113.346258 C31.6186239,113.307649 31.6218808,113.269039 31.6218808,113.229965 C31.6218808,112.169371 32.3737697,111.369273 33.37086,111.369273 C34.4954364,111.369273 35.0077072,112.333577 35.0077072,113.229965 L35.0077072,114.625483 C35.0077072,115.011112 35.3203739,115.323243 35.7056239,115.323243 C36.0908739,115.323243 36.4035405,115.011112 36.4035405,114.625483 C36.4035405,113.599312 37.2382489,112.764792 38.2646516,112.764792 C39.2910544,112.764792 40.1257627,113.599312 40.1257627,114.625483 L40.1257627,117.649107 C40.1257627,118.03427 40.4384294,118.346866 40.8236794,118.346866 C41.2089294,118.346866 41.5215961,118.03427 41.5215961,117.649107 L41.5215961,115.872147 C41.8007627,115.736316 42.3479294,115.555364 42.6764155,115.555364 C43.5092627,115.555364 44.2965127,116.233586 44.2965127,116.950883 C44.2960475,120.075449 44.0578252,128.658819 42.973728,130.826524 L42.973728,130.826524 Z" id="Shape" sketch:type="MSShapeGroup"></path>
            <path d="M9.09281029,153.192487 L9.09281029,149.859916 L9.80253691,149.859916 C10.7514972,149.859916 11.3974282,150.617319 11.3974282,151.526202 C11.3974282,152.435085 10.7514972,153.192487 9.80253691,153.192487 L9.09281029,153.192487 Z M7.81689727,154.356495 L9.80253691,154.356495 C11.3974282,154.356495 12.6813157,153.088843 12.6813157,151.526202 C12.6813157,149.963561 11.3974282,148.695908 9.80253691,148.695908 L7.81689727,148.695908 L7.81689727,154.356495 Z M16.5329781,154.356495 L18.0560993,154.356495 L16.2139998,151.956725 C16.8679053,151.7016 17.3065004,151.087705 17.3065004,150.378139 C17.3065004,149.453311 16.548927,148.695908 15.6238901,148.695908 L13.4867358,148.695908 L13.4867358,154.356495 L14.7626488,154.356495 L14.7626488,152.06037 L14.7785977,152.06037 L16.5329781,154.356495 Z M14.7626488,150.984061 L14.7626488,149.859916 L15.4803499,149.859916 C15.8232515,149.859916 16.0704596,150.115041 16.0704596,150.425975 C16.0704596,150.736909 15.8232515,150.984061 15.4803499,150.984061 L14.7626488,150.984061 Z M18.0560993,154.356495 L19.3958079,154.356495 L19.8025052,153.479503 L21.8918128,153.479503 L22.2985101,154.356495 L23.6382187,154.356495 L20.847159,148.632127 L18.0560993,154.356495 Z M20.3128704,152.443057 L20.847159,151.263104 L21.3814476,152.443057 L20.3128704,152.443057 Z M26.2857383,154.420277 C27.242673,154.420277 28.0560676,154.133261 28.6142795,153.495448 L28.6142795,150.928252 L26.5568698,150.928252 L26.0146067,152.124151 L27.3782388,152.124151 L27.3782388,152.913444 C27.0991328,153.112761 26.7482567,153.192487 26.2857383,153.192487 C25.3686758,153.192487 24.6748981,152.435085 24.6748981,151.526202 C24.6748981,150.617319 25.3686758,149.859916 26.2857383,149.859916 C26.8917969,149.859916 27.2665964,150.059233 27.609498,150.489756 L28.5744072,149.700463 C28.0241697,149.022787 27.2586219,148.632127 26.2857383,148.632127 C24.690847,148.632127 23.3910106,149.93167 23.3910106,151.526202 C23.3910106,153.120733 24.690847,154.420277 26.2857383,154.420277 L26.2857383,154.420277 Z M32.1948104,154.356495 L33.4707235,154.356495 L33.4707235,149.955588 L34.8343555,149.955588 L34.8343555,148.695908 L30.8391529,148.695908 L30.8391529,149.955588 L32.1948104,149.955588 L32.1948104,154.356495 Z M37.9762913,153.192487 C37.0592288,153.192487 36.3654511,152.435085 36.3654511,151.526202 C36.3654511,150.617319 37.0592288,149.859916 37.9762913,149.859916 C38.8933538,149.859916 39.5871315,150.617319 39.5871315,151.526202 C39.5871315,152.435085 38.8933538,153.192487 37.9762913,153.192487 L37.9762913,153.192487 Z M37.9762913,154.420277 C39.5711826,154.420277 40.871019,153.120733 40.871019,151.526202 C40.871019,149.93167 39.5711826,148.632127 37.9762913,148.632127 C36.3814,148.632127 35.0815636,149.93167 35.0815636,151.526202 C35.0815636,153.120733 36.3814,154.420277 37.9762913,154.420277 L37.9762913,154.420277 Z M43.4308195,154.356495 L44.7067325,154.356495 L44.7067325,152.538729 L45.2968423,152.538729 C46.4052917,152.538729 47.2346352,151.677682 47.2346352,150.617319 C47.2346352,149.556955 46.4052917,148.695908 45.2968423,148.695908 L43.4308195,148.695908 L43.4308195,154.356495 Z M44.7067325,151.350803 L44.7067325,149.891807 L45.2808934,149.891807 C45.6955651,149.891807 45.9985944,150.234631 45.9985944,150.617319 C45.9985944,151.000006 45.6955651,151.350803 45.2808934,151.350803 L44.7067325,151.350803 Z M46.4770618,154.356495 L47.8167705,154.356495 L48.2234678,153.479503 L50.3127753,153.479503 L50.7194726,154.356495 L52.0591813,154.356495 L49.2681216,148.632127 L46.4770618,154.356495 Z M48.733833,152.443057 L49.2681216,151.263104 L49.8024101,152.443057 L48.733833,152.443057 Z M57.3621948,154.420277 L57.3621948,148.695908 L56.0862818,148.695908 L56.0862818,151.653764 L52.5137253,148.632127 L52.5137253,154.356495 L53.7896383,154.356495 L53.7896383,151.398639 L57.3621948,154.420277 Z" id="DRAG-TO-PAN" sketch:type="MSShapeGroup"></path>
        </g>
    </g>
</svg>