<?xml version="1.0" encoding="UTF-8" standalone="no"?>
<svg width="103px" height="47px" viewBox="0 0 103 47" version="1.1" xmlns="http://www.w3.org/2000/svg" xmlns:xlink="http://www.w3.org/1999/xlink">
    <!-- Generator: Sketch 43.2 (39069) - http://www.bohemiancoding.com/sketch -->
    <title>Group</title>
    <desc>Created with Sketch.</desc>
    <defs></defs>
    <g id="Page-1" stroke="none" stroke-width="1" fill="none" fill-rule="evenodd">
        <g id="Group" fill-rule="nonzero" fill="#FFFFFF">
            <rect id="Rectangle-path" x="13.083396" y="21.01125" width="2.5416792" height="2.5416792"></rect>
            <rect id="Rectangle-path" x="17.36854" y="21.01125" width="2.5416792" height="2.5416792"></rect>
            <rect id="Rectangle-path" x="17.36854" y="18.04596" width="2.5416792" height="2.5416792"></rect>
            <rect id="Rectangle-path" x="17.36854" y="15.08067" width="2.5416792" height="2.5416792"></rect>
            <rect id="Rectangle-path" x="17.36854" y="12.11538" width="2.5416792" height="2.5416792"></rect>
            <rect id="Rectangle-path" x="21.700474" y="21.01125" width="2.5416792" height="2.5416792"></rect>
            <rect id="Rectangle-path" x="21.700474" y="18.04596" width="2.5416792" height="2.5416792"></rect>
            <rect id="Rectangle-path" x="26.03241" y="21.01125" width="2.5416792" height="2.5416792"></rect>
            <rect id="Rectangle-path" x="26.03241" y="18.04596" width="2.5416792" height="2.5416792"></rect>
            <rect id="Rectangle-path" x="26.03241" y="15.08067" width="2.5416792" height="2.5416792"></rect>
            <rect id="Rectangle-path" x="26.03241" y="12.11538" width="2.5416792" height="2.5416792"></rect>
            <rect id="Rectangle-path" x="26.03241" y="9.14588" width="2.5416792" height="2.5416792"></rect>
            <rect id="Rectangle-path" x="30.364343" y="21.01125" width="2.5416792" height="2.5416792"></rect>
            <rect id="Rectangle-path" x="30.364343" y="18.04596" width="2.5416792" height="2.5416792"></rect>
            <rect id="Rectangle-path" x="30.364343" y="15.08067" width="2.5416792" height="2.5416792"></rect>
            <rect id="Rectangle-path" x="34.696277" y="21.01125" width="2.5416792" height="2.5416792"></rect>
            <rect id="Rectangle-path" x="34.696277" y="18.04596" width="2.5416792" height="2.5416792"></rect>
            <rect id="Rectangle-path" x="39.02821" y="21.01125" width="2.5416792" height="2.5416792"></rect>
            <rect id="Rectangle-path" x="39.02821" y="18.04596" width="2.5416792" height="2.5416792"></rect>
            <rect id="Rectangle-path" x="39.02821" y="15.08067" width="2.5416792" height="2.5416792"></rect>
            <rect id="Rectangle-path" x="39.02821" y="12.11538" width="2.5416792" height="2.5416792"></rect>
            <rect id="Rectangle-path" x="39.02821" y="9.14588" width="2.5416792" height="2.5416792"></rect>
            <rect id="Rectangle-path" x="43.360146" y="21.01125" width="2.5416792" height="2.5416792"></rect>
            <rect id="Rectangle-path" x="43.360146" y="18.04596" width="2.5416792" height="2.5416792"></rect>
            <rect id="Rectangle-path" x="43.360146" y="15.08067" width="2.5416792" height="2.5416792"></rect>
            <rect id="Rectangle-path" x="43.360146" y="12.11538" width="2.5416792" height="2.5416792"></rect>
            <rect id="Rectangle-path" x="47.69208" y="21.01125" width="2.5416792" height="2.5416792"></rect>
            <rect id="Rectangle-path" x="47.69208" y="18.04596" width="2.5416792" height="2.5416792"></rect>
            <rect id="Rectangle-path" x="47.69208" y="15.08067" width="2.5416792" height="2.5416792"></rect>
            <rect id="Rectangle-path" x="47.69208" y="12.11538" width="2.5416792" height="2.5416792"></rect>
            <rect id="Rectangle-path" x="47.69208" y="9.14588" width="2.5416792" height="2.5416792"></rect>
            <rect id="Rectangle-path" x="47.69208" y="6.18058" width="2.5416792" height="2.5416792"></rect>
            <rect id="Rectangle-path" x="47.69208" y="3.21529" width="2.5416792" height="2.5416792"></rect>
            <rect id="Rectangle-path" x="47.69208" y="0.25" width="2.5416792" height="2.5416792"></rect>
            <rect id="Rectangle-path" x="52.024014" y="21.01125" width="2.5416792" height="2.5416792"></rect>
            <rect id="Rectangle-path" x="52.024014" y="18.04596" width="2.5416792" height="2.5416792"></rect>
            <rect id="Rectangle-path" x="52.024014" y="15.08067" width="2.5416792" height="2.5416792"></rect>
            <rect id="Rectangle-path" x="52.024014" y="12.11538" width="2.5416792" height="2.5416792"></rect>
            <rect id="Rectangle-path" x="52.024014" y="9.14588" width="2.5416792" height="2.5416792"></rect>
            <rect id="Rectangle-path" x="52.024014" y="6.18058" width="2.5416792" height="2.5416792"></rect>
            <rect id="Rectangle-path" x="56.35595" y="21.01125" width="2.5416792" height="2.5416792"></rect>
            <rect id="Rectangle-path" x="56.35595" y="18.04596" width="2.5416792" height="2.5416792"></rect>
            <rect id="Rectangle-path" x="60.68788" y="21.01125" width="2.5416792" height="2.5416792"></rect>
            <rect id="Rectangle-path" x="60.68788" y="18.04596" width="2.5416792" height="2.5416792"></rect>
            <rect id="Rectangle-path" x="60.68788" y="15.08067" width="2.5416792" height="2.5416792"></rect>
            <rect id="Rectangle-path" x="60.68788" y="12.11538" width="2.5416792" height="2.5416792"></rect>
            <rect id="Rectangle-path" x="65.01982" y="21.01125" width="2.5416792" height="2.5416792"></rect>
            <rect id="Rectangle-path" x="65.01982" y="18.04596" width="2.5416792" height="2.5416792"></rect>
            <rect id="Rectangle-path" x="69.35175" y="21.01125" width="2.5416792" height="2.5416792"></rect>
            <rect id="Rectangle-path" x="69.35175" y="18.04596" width="2.5416792" height="2.5416792"></rect>
            <rect id="Rectangle-path" x="69.35175" y="15.08067" width="2.5416792" height="2.5416792"></rect>
            <rect id="Rectangle-path" x="69.35175" y="12.11538" width="2.5416792" height="2.5416792"></rect>
            <rect id="Rectangle-path" x="69.35175" y="9.14588" width="2.5416792" height="2.5416792"></rect>
            <rect id="Rectangle-path" x="73.683686" y="21.01125" width="2.5416792" height="2.5416792"></rect>
            <rect id="Rectangle-path" x="78.01562" y="21.01125" width="2.5416792" height="2.5416792"></rect>
            <rect id="Rectangle-path" x="78.01562" y="18.04596" width="2.5416792" height="2.5416792"></rect>
            <rect id="Rectangle-path" x="78.01562" y="15.08067" width="2.5416792" height="2.5416792"></rect>
            <rect id="Rectangle-path" x="82.347555" y="21.01125" width="2.5416792" height="2.5416792"></rect>
            <rect id="Rectangle-path" x="82.347555" y="18.04596" width="2.5416792" height="2.5416792"></rect>
            <rect id="Rectangle-path" x="91.01142" y="21.01125" width="2.5416792" height="2.5416792"></rect>
            <rect id="Rectangle-path" x="91.01142" y="18.04596" width="2.5416792" height="2.5416792"></rect>
            <rect id="Rectangle-path" fill-opacity="0.33" x="13.081174" y="26.59986" width="2.5416792" height="2.5416792"></rect>
            <rect id="Rectangle-path" fill-opacity="0.33" x="17.36632" y="29.56515" width="2.5416792" height="2.5416792"></rect>
            <rect id="Rectangle-path" fill-opacity="0.33" x="17.36632" y="26.59986" width="2.5416792" height="2.5416792"></rect>
            <rect id="Rectangle-path" fill-opacity="0.33" x="21.698253" y="35.49574" width="2.5416792" height="2.5416792"></rect>
            <rect id="Rectangle-path" fill-opacity="0.33" x="21.698253" y="32.53044" width="2.5416792" height="2.5416792"></rect>
            <rect id="Rectangle-path" fill-opacity="0.33" x="21.698253" y="29.56515" width="2.5416792" height="2.5416792"></rect>
            <rect id="Rectangle-path" fill-opacity="0.33" x="21.698253" y="26.59986" width="2.5416792" height="2.5416792"></rect>
            <rect id="Rectangle-path" fill-opacity="0.33" x="26.030187" y="44.39582" width="2.5416792" height="2.5416792"></rect>
            <rect id="Rectangle-path" fill-opacity="0.33" x="26.030187" y="41.43053" width="2.5416792" height="2.5416792"></rect>
            <rect id="Rectangle-path" fill-opacity="0.33" x="26.030187" y="38.46524" width="2.5416792" height="2.5416792"></rect>
            <rect id="Rectangle-path" fill-opacity="0.33" x="26.030187" y="35.49574" width="2.5416792" height="2.5416792"></rect>
            <rect id="Rectangle-path" fill-opacity="0.33" x="26.030187" y="32.53044" width="2.5416792" height="2.5416792"></rect>
            <rect id="Rectangle-path" fill-opacity="0.33" x="26.030187" y="29.56515" width="2.5416792" height="2.5416792"></rect>
            <rect id="Rectangle-path" fill-opacity="0.33" x="26.030187" y="26.59986" width="2.5416792" height="2.5416792"></rect>
            <rect id="Rectangle-path" fill-opacity="0.33" x="30.36212" y="35.49574" width="2.5416792" height="2.5416792"></rect>
            <rect id="Rectangle-path" fill-opacity="0.33" x="30.36212" y="32.53044" width="2.5416792" height="2.5416792"></rect>
            <rect id="Rectangle-path" fill-opacity="0.33" x="30.36212" y="29.56515" width="2.5416792" height="2.5416792"></rect>
            <rect id="Rectangle-path" fill-opacity="0.33" x="30.36212" y="26.59986" width="2.5416792" height="2.5416792"></rect>
            <rect id="Rectangle-path" fill-opacity="0.33" x="34.694056" y="32.53044" width="2.5416792" height="2.5416792"></rect>
            <rect id="Rectangle-path" fill-opacity="0.33" x="34.694056" y="29.56515" width="2.5416792" height="2.5416792"></rect>
            <rect id="Rectangle-path" fill-opacity="0.33" x="34.694056" y="26.59986" width="2.5416792" height="2.5416792"></rect>
            <rect id="Rectangle-path" fill-opacity="0.33" x="39.02599" y="38.46524" width="2.5416792" height="2.5416792"></rect>
            <rect id="Rectangle-path" fill-opacity="0.33" x="39.02599" y="35.49574" width="2.5416792" height="2.5416792"></rect>
            <rect id="Rectangle-path" fill-opacity="0.33" x="39.02599" y="32.53044" width="2.5416792" height="2.5416792"></rect>
            <rect id="Rectangle-path" fill-opacity="0.33" x="39.02599" y="29.56515" width="2.5416792" height="2.5416792"></rect>
            <rect id="Rectangle-path" fill-opacity="0.33" x="39.02599" y="26.59986" width="2.5416792" height="2.5416792"></rect>
            <rect id="Rectangle-path" fill-opacity="0.33" x="43.357924" y="29.56515" width="2.5416792" height="2.5416792"></rect>
            <rect id="Rectangle-path" fill-opacity="0.33" x="43.357924" y="26.59986" width="2.5416792" height="2.5416792"></rect>
            <rect id="Rectangle-path" fill-opacity="0.33" x="47.68986" y="41.43053" width="2.5416792" height="2.5416792"></rect>
            <rect id="Rectangle-path" fill-opacity="0.33" x="47.68986" y="38.46524" width="2.5416792" height="2.5416792"></rect>
            <rect id="Rectangle-path" fill-opacity="0.33" x="47.68986" y="35.49574" width="2.5416792" height="2.5416792"></rect>
            <rect id="Rectangle-path" fill-opacity="0.33" x="47.68986" y="32.53044" width="2.5416792" height="2.5416792"></rect>
            <rect id="Rectangle-path" fill-opacity="0.33" x="47.68986" y="29.56515" width="2.5416792" height="2.5416792"></rect>
            <rect id="Rectangle-path" fill-opacity="0.33" x="47.68986" y="26.59986" width="2.5416792" height="2.5416792"></rect>
            <rect id="Rectangle-path" fill-opacity="0.33" x="52.02179" y="38.46524" width="2.5416792" height="2.5416792"></rect>
            <rect id="Rectangle-path" fill-opacity="0.33" x="52.02179" y="35.49574" width="2.5416792" height="2.5416792"></rect>
            <rect id="Rectangle-path" fill-opacity="0.33" x="52.02179" y="32.53044" width="2.5416792" height="2.5416792"></rect>
            <rect id="Rectangle-path" fill-opacity="0.33" x="52.02179" y="29.56515" width="2.5416792" height="2.5416792"></rect>
            <rect id="Rectangle-path" fill-opacity="0.33" x="52.02179" y="26.59986" width="2.5416792" height="2.5416792"></rect>
            <rect id="Rectangle-path" fill-opacity="0.33" x="56.35373" y="35.49574" width="2.5416792" height="2.5416792"></rect>
            <rect id="Rectangle-path" fill-opacity="0.33" x="56.35373" y="32.53044" width="2.5416792" height="2.5416792"></rect>
            <rect id="Rectangle-path" fill-opacity="0.33" x="56.35373" y="29.56515" width="2.5416792" height="2.5416792"></rect>
            <rect id="Rectangle-path" fill-opacity="0.33" x="56.35373" y="26.59986" width="2.5416792" height="2.5416792"></rect>
            <rect id="Rectangle-path" fill-opacity="0.33" x="60.68566" y="44.39582" width="2.5416792" height="2.5416792"></rect>
            <rect id="Rectangle-path" fill-opacity="0.33" x="60.68566" y="41.43053" width="2.5416792" height="2.5416792"></rect>
            <rect id="Rectangle-path" fill-opacity="0.33" x="60.68566" y="38.46524" width="2.5416792" height="2.5416792"></rect>
            <rect id="Rectangle-path" fill-opacity="0.33" x="60.68566" y="35.49574" width="2.5416792" height="2.5416792"></rect>
            <rect id="Rectangle-path" fill-opacity="0.33" x="60.68566" y="32.53044" width="2.5416792" height="2.5416792"></rect>
            <rect id="Rectangle-path" fill-opacity="0.33" x="60.68566" y="29.56515" width="2.5416792" height="2.5416792"></rect>
            <rect id="Rectangle-path" fill-opacity="0.33" x="60.68566" y="26.59986" width="2.5416792" height="2.5416792"></rect>
            <rect id="Rectangle-path" fill-opacity="0.33" x="65.017596" y="29.56515" width="2.5416792" height="2.5416792"></rect>
            <rect id="Rectangle-path" fill-opacity="0.33" x="65.017596" y="26.59986" width="2.5416792" height="2.5416792"></rect>
            <rect id="Rectangle-path" fill-opacity="0.33" x="69.34953" y="38.46524" width="2.5416792" height="2.5416792"></rect>
            <rect id="Rectangle-path" fill-opacity="0.33" x="69.34953" y="35.49574" width="2.5416792" height="2.5416792"></rect>
            <rect id="Rectangle-path" fill-opacity="0.33" x="69.34953" y="32.53044" width="2.5416792" height="2.5416792"></rect>
            <rect id="Rectangle-path" fill-opacity="0.33" x="69.34953" y="29.56515" width="2.5416792" height="2.5416792"></rect>
            <rect id="Rectangle-path" fill-opacity="0.33" x="69.34953" y="26.59986" width="2.5416792" height="2.5416792"></rect>
            <rect id="Rectangle-path" fill-opacity="0.33" x="73.681465" y="32.53044" width="2.5416792" height="2.5416792"></rect>
            <rect id="Rectangle-path" fill-opacity="0.33" x="73.681465" y="29.56515" width="2.5416792" height="2.5416792"></rect>
            <rect id="Rectangle-path" fill-opacity="0.33" x="73.681465" y="26.59986" width="2.5416792" height="2.5416792"></rect>
            <rect id="Rectangle-path" fill-opacity="0.33" x="78.0134" y="29.56515" width="2.5416792" height="2.5416792"></rect>
            <rect id="Rectangle-path" fill-opacity="0.33" x="78.0134" y="26.59986" width="2.5416792" height="2.5416792"></rect>
            <rect id="Rectangle-path" fill-opacity="0.33" x="82.34533" y="32.53044" width="2.5416792" height="2.5416792"></rect>
            <rect id="Rectangle-path" fill-opacity="0.33" x="82.34533" y="29.56515" width="2.5416792" height="2.5416792"></rect>
            <rect id="Rectangle-path" fill-opacity="0.33" x="82.34533" y="26.59986" width="2.5416792" height="2.5416792"></rect>
            <rect id="Rectangle-path" fill-opacity="0.33" x="86.67727" y="29.56515" width="2.5416792" height="2.5416792"></rect>
            <rect id="Rectangle-path" fill-opacity="0.33" x="86.67727" y="26.59986" width="2.5416792" height="2.5416792"></rect>
            <rect id="Rectangle-path" fill-opacity="0.33" x="91.0092" y="26.59986" width="2.5416792" height="2.5416792"></rect>
            <rect id="Rectangle-path" x="95.264355" y="21.00705" width="2.5416792" height="2.5416792"></rect>
            <rect id="Rectangle-path" x="99.59629" y="21.00705" width="2.5416792" height="2.5416792"></rect>
            <rect id="Rectangle-path" fill-opacity="0.33" x="95.264355" y="32.4446" width="2.5416792" height="2.5416792"></rect>
            <rect id="Rectangle-path" fill-opacity="0.33" x="95.264355" y="29.47931" width="2.5416792" height="2.5416792"></rect>
            <rect id="Rectangle-path" fill-opacity="0.33" x="95.264355" y="26.51402" width="2.5416792" height="2.5416792"></rect>
            <rect id="Rectangle-path" x="0.375" y="21.00705" width="2.5416792" height="2.5416792"></rect>
            <rect id="Rectangle-path" x="4.660144" y="21.00705" width="2.5416792" height="2.5416792"></rect>
            <rect id="Rectangle-path" x="4.660144" y="18.04175" width="2.5416792" height="2.5416792"></rect>
            <rect id="Rectangle-path" x="4.660144" y="15.07646" width="2.5416792" height="2.5416792"></rect>
            <rect id="Rectangle-path" x="4.660144" y="12.11117" width="2.5416792" height="2.5416792"></rect>
            <rect id="Rectangle-path" x="8.992078" y="21.00705" width="2.5416792" height="2.5416792"></rect>
            <rect id="Rectangle-path" x="8.992078" y="18.04175" width="2.5416792" height="2.5416792"></rect>
            <rect id="Rectangle-path" fill-opacity="0.33" x="0.470802" y="26.51402" width="2.5416792" height="2.5416792"></rect>
            <rect id="Rectangle-path" fill-opacity="0.33" x="4.802737" y="29.47931" width="2.5416792" height="2.5416792"></rect>
            <rect id="Rectangle-path" fill-opacity="0.33" x="4.802737" y="26.51402" width="2.5416792" height="2.5416792"></rect>
            <rect id="Rectangle-path" fill-opacity="0.33" x="9.13467" y="32.4446" width="2.5416792" height="2.5416792"></rect>
            <rect id="Rectangle-path" fill-opacity="0.33" x="9.13467" y="29.47931" width="2.5416792" height="2.5416792"></rect>
            <rect id="Rectangle-path" fill-opacity="0.33" x="9.13467" y="26.51402" width="2.5416792" height="2.5416792"></rect>
            <rect id="Rectangle-path" x="86.70089" y="21.0625" width="2.5416792" height="2.5416792"></rect>
        </g>
    </g>
</svg>