<svg xmlns:dc="http://purl.org/dc/elements/1.1/" xmlns:cc="http://creativecommons.org/ns#" xmlns:rdf="http://www.w3.org/1999/02/22-rdf-syntax-ns#" xmlns:svg="http://www.w3.org/2000/svg" xmlns="http://www.w3.org/2000/svg" xmlns:sodipodi="http://sodipodi.sourceforge.net/DTD/sodipodi-0.dtd" xmlns:inkscape="http://www.inkscape.org/namespaces/inkscape" version="1.1" x="0px" y="0px" viewBox="0 0 100 125"><g transform="translate(0,-952.36218)"><path style="text-indent:0;text-transform:none;direction:ltr;block-progression:tb;baseline-shift:baseline;color:#000000;enable-background:accumulate;" d="m 40.996337,959.35852 c -18.7066,0 -34,15.29343 -34,34 0,18.70658 15.2934,34.00008 34,34.00008 7.2047,0 13.8928,-2.2666 19.4062,-6.125 l 22.343801,22.375 c 2.343,2.343 6.157,2.343 8.5,0 2.3431,-2.343 2.3431,-6.1569 0,-8.5 l -22.375,-22.3438 c 3.8584,-5.5134 6.125,-12.2016 6.125,-19.40628 0,-18.7066 -15.293501,-34 -34.000001,-34 z m 0,12 c 12.2211,0 22,9.7788 22,22 0,12.22108 -9.7789,22.00008 -22,22.00008 -12.2212,0 -22,-9.779 -22,-22.00008 0,-12.22123 9.7788,-22 22,-22 z" fill="#FFF" fill-opacity="1" stroke="none" marker="none" visibility="visible" display="inline" overflow="visible"/></g></svg>